<svg width="20" height="18" viewBox="0 0 20 18" fill="none" xmlns="http://www.w3.org/2000/svg">
<path d="M14.2786 0.727142H1.44429C1.06366 0.728616 0.698884 0.879691 0.428675 1.14776C0.158466 1.41583 0.00449714 1.7794 0 2.16L0 2.74143C0.000756783 3.12398 0.153256 3.49061 0.42403 3.76085C0.694804 4.03108 1.06173 4.18286 1.44429 4.18286H14.2786C14.6611 4.18286 15.0281 4.03108 15.2988 3.76085C15.5696 3.49061 15.7221 3.12398 15.7229 2.74143V2.15857C15.718 1.77822 15.5639 1.41502 15.2937 1.14725C15.0235 0.879489 14.6589 0.72861 14.2786 0.727142Z" fill="#403B36"/>
<path d="M18.5571 7.27142H1.44429C1.06378 7.27326 0.69921 7.42446 0.42908 7.69245C0.15895 7.96044 0.00486431 8.3238 0 8.70428L0 9.28571C0.000378636 9.66851 0.152711 10.0355 0.423526 10.3061C0.694341 10.5766 1.06148 10.7286 1.44429 10.7286H18.5571C18.7466 10.7286 18.9342 10.6912 19.1093 10.6187C19.2844 10.5462 19.4434 10.4399 19.5774 10.306C19.7114 10.172 19.8177 10.0129 19.8902 9.83787C19.9627 9.66281 20 9.47519 20 9.28571V8.70285C19.9955 8.32263 19.8417 7.95943 19.5717 7.69162C19.3018 7.42382 18.9374 7.2729 18.5571 7.27142Z" fill="#403B36"/>
<path d="M9.28571 13.8171H1.44429C1.0644 13.8186 0.70025 13.9691 0.430161 14.2362C0.160071 14.5034 0.00561138 14.8659 0 15.2457L0 15.8257C0.000378636 16.2085 0.152711 16.5755 0.423526 16.8461C0.694341 17.1166 1.06148 17.2686 1.44429 17.2686H9.28571C9.66852 17.2686 10.0357 17.1166 10.3065 16.8461C10.5773 16.5755 10.7296 16.2085 10.73 15.8257V15.2443C10.724 14.8647 10.5694 14.5026 10.2993 14.2357C10.0293 13.9689 9.66536 13.8186 9.28571 13.8171Z" fill="#403B36"/>
</svg>
